<?xml version="1.0" standalone="no"?>
<!DOCTYPE svg PUBLIC "-//W3C//DTD SVG 20010904//EN"
 "http://www.w3.org/TR/2001/REC-SVG-20010904/DTD/svg10.dtd">
<svg version="1.0" xmlns="http://www.w3.org/2000/svg"
 width="704.000000pt" height="396.000000pt" viewBox="0 0 704.000000 396.000000"
 preserveAspectRatio="xMidYMid meet">

<g transform="translate(0.000000,396.000000) scale(0.100000,-0.100000)"
fill="#000000" stroke="none">
<path d="M0 1980 l0 -1980 836 0 837 0 76 39 c150 78 166 88 163 105 -3 17 13
22 23 6 4 -7 103 -8 168 -1 5 1 6 10 2 20 -9 28 11 35 61 21 34 -10 48 -10 57
-1 19 19 47 12 57 -14 l10 -25 142 6 c155 6 246 13 498 40 150 15 167 19 190
41 l25 25 -75 -5 c-115 -8 -184 -19 -198 -30 -24 -19 -106 -25 -182 -13 -69
11 -75 14 -73 35 3 24 0 23 -49 -11 -22 -15 -49 -19 -145 -21 -109 -2 -119 -1
-144 21 -15 12 -30 36 -34 52 -4 17 -13 30 -21 30 -8 0 -14 4 -14 9 0 5 9 7
19 4 17 -4 34 18 36 50 0 4 5 11 11 15 6 4 19 32 29 62 10 30 24 69 30 85 7
17 16 46 20 65 4 19 11 40 15 45 19 24 21 80 5 162 -9 49 -21 98 -27 111 -24
48 -50 14 -43 -58 5 -45 -13 -141 -30 -160 -7 -8 -15 -26 -18 -40 -19 -84 -30
-125 -32 -128 -2 -2 -20 1 -40 8 -20 7 -39 9 -42 6 -4 -3 8 -11 25 -17 34 -12
38 -19 22 -35 -5 -5 -13 -32 -16 -59 -4 -28 -13 -54 -21 -58 -10 -6 -11 -12
-3 -22 31 -38 -35 -98 -76 -68 -15 11 -17 17 -6 33 15 24 15 30 2 30 -6 0 -14
-8 -18 -18 -4 -9 -18 -34 -31 -54 -27 -44 -50 -48 -100 -14 -31 20 -35 28 -39
77 -8 104 -1 149 22 149 8 0 20 16 26 35 6 19 16 35 22 35 7 0 7 4 1 13 -5 6
-17 31 -26 54 -16 41 -16 45 9 123 38 123 25 135 -44 41 -17 -25 -32 -40 -32
-34 0 10 60 94 88 122 7 7 11 16 8 18 -13 14 -166 -162 -166 -190 0 -8 -7 -28
-15 -43 -8 -16 -15 -48 -15 -70 0 -79 -52 -84 -79 -8 -7 21 -21 60 -31 86 -15
39 -16 48 -5 48 8 0 19 -8 25 -17 8 -14 9 -7 4 30 -5 40 -4 47 11 47 12 0 15
5 10 21 -5 14 -2 25 6 30 11 7 11 9 1 9 -9 0 -11 7 -7 20 8 24 -3 25 -33 4
-31 -22 -51 -13 -26 12 21 21 25 55 7 61 -7 3 -20 -5 -29 -16 -16 -19 -18 -19
-30 -3 -12 16 -13 16 -19 0 -10 -26 -25 -22 -25 7 0 16 -6 25 -15 25 -8 0 -15
4 -15 10 0 5 -10 9 -22 7 -25 -2 -38 30 -17 43 11 7 13 29 9 103 -1 21 24 48
42 45 17 -4 16 114 -1 120 -6 2 -11 10 -11 18 0 8 -4 14 -10 14 -5 0 -7 7 -4
15 4 9 0 15 -10 15 -9 0 -16 5 -16 10 0 6 4 10 9 10 5 0 12 8 15 17 6 14 2 12
-17 -5 -30 -28 -51 -29 -42 -2 5 16 2 20 -19 20 -14 0 -26 -4 -26 -10 0 -5 -7
-7 -15 -4 -8 4 -12 10 -9 16 3 5 8 7 11 5 2 -3 16 6 31 20 21 20 24 26 12 33
-8 5 -11 12 -7 16 3 4 13 1 22 -6 9 -7 15 -8 15 -2 0 23 -13 42 -30 42 -27 0
-32 46 -6 58 37 18 62 20 81 6 10 -8 29 -11 47 -7 20 4 33 1 39 -8 5 -8 9 -9
9 -3 0 7 8 14 19 17 12 3 18 -1 17 -11 0 -8 4 -17 11 -19 8 -3 11 7 8 32 -2
20 -5 38 -7 39 -60 40 -92 45 -49 7 12 -11 18 -22 13 -25 -4 -2 -17 7 -27 20
-27 36 -68 54 -154 70 l-76 14 113 -6 c62 -3 133 -11 157 -19 54 -16 60 0 9
21 -21 9 -43 22 -51 30 -8 8 -22 14 -32 14 -10 0 -26 9 -36 20 -10 11 -26 22
-36 25 -11 4 -19 15 -19 25 0 13 -9 22 -27 26 -16 3 -37 9 -48 14 -19 8 -19 8
-1 16 10 4 27 2 37 -4 11 -7 20 -8 24 -2 13 21 35 10 35 -18 0 -23 6 -29 37
-39 25 -7 42 -8 49 -2 8 7 15 6 20 -2 4 -8 3 -9 -4 -5 -7 4 -12 3 -12 -3 0
-17 34 -30 52 -20 9 5 24 6 34 2 16 -6 16 -7 0 -19 -12 -8 -14 -14 -6 -19 6
-4 17 -2 24 4 10 8 24 0 60 -36 25 -26 46 -53 46 -60 0 -15 31 -53 43 -53 22
0 -26 138 -53 155 -6 4 -8 11 -5 16 4 5 1 9 -5 9 -6 0 -8 5 -5 10 3 6 1 10 -5
10 -10 0 -126 84 -140 101 -3 4 -75 41 -160 84 -152 75 -220 123 -220 154 0
14 -1 14 -10 1 -7 -11 -12 -12 -20 -4 -15 15 -4 21 40 24 56 4 77 1 62 -9 -10
-6 -9 -10 7 -14 17 -4 21 -1 21 19 0 19 -5 24 -25 24 -14 0 -25 5 -25 10 0 6
6 10 13 9 28 -3 39 2 33 16 -3 9 0 15 8 15 8 0 21 3 29 6 10 3 17 -2 20 -13 4
-14 5 -14 6 5 1 18 -4 22 -31 23 -18 1 -41 1 -50 0 -9 -1 -18 6 -21 16 -4 17
-5 17 -6 0 -1 -23 -26 -17 -26 7 0 9 -6 21 -14 25 -8 5 -11 16 -8 25 4 9 2 16
-3 16 -6 0 -10 -4 -10 -8 0 -4 -10 -8 -22 -9 -22 -2 -22 -1 4 22 16 14 23 27
18 30 -6 4 -8 10 -5 15 3 5 0 12 -6 16 -9 5 -10 -1 -5 -21 6 -25 5 -27 -8 -16
-9 8 -16 21 -17 30 0 13 -2 14 -6 1 -3 -8 -11 -18 -17 -22 -7 -5 -4 -8 7 -8 9
0 17 -4 17 -10 0 -14 -16 -12 -29 3 -8 10 -7 17 1 25 9 9 6 18 -12 37 -20 21
-21 25 -6 25 19 0 48 24 40 33 -3 3 -13 4 -22 1 -10 -2 -3 2 13 10 53 26 120
20 171 -15 24 -16 52 -29 62 -28 9 1 25 -1 35 -6 25 -11 44 9 28 29 -7 8 -21
18 -31 21 -10 3 -30 30 -45 60 -21 44 -31 55 -51 55 -23 0 -22 2 15 35 21 19
41 35 45 35 4 0 30 -21 58 -47 117 -110 110 -105 103 -82 -6 18 -4 20 17 14
26 -9 38 -22 38 -45 0 -8 10 -21 21 -29 14 -8 18 -15 11 -20 -7 -4 -8 -12 -1
-21 7 -11 11 -12 17 -3 9 15 37 0 28 -16 -4 -6 -21 -8 -39 -5 l-32 6 33 -21
c39 -25 40 -25 38 -5 0 9 5 19 12 21 8 3 10 -1 5 -13 -4 -11 -3 -15 4 -11 16
10 40 -23 78 -103 9 -19 21 -43 26 -53 15 -27 46 -116 62 -177 27 -101 34
-150 41 -308 3 -54 10 -100 17 -108 9 -11 9 -18 2 -22 -6 -4 -8 -22 -6 -39 3
-18 9 -30 14 -27 5 3 9 -4 9 -15 0 -19 -11 -26 -33 -22 -5 1 -6 -3 -2 -8 3 -6
12 -8 20 -5 9 4 18 -7 26 -35 14 -46 8 -60 -18 -40 -15 12 -16 12 -10 -4 4
-10 7 -23 7 -28 0 -6 9 -7 20 -4 13 4 20 2 21 -7 1 -7 3 -24 5 -38 9 -58 7
-94 -3 -97 -17 -6 -3 -42 15 -40 10 0 18 10 18 21 1 12 7 39 14 61 6 22 19 77
28 123 14 70 19 81 31 70 11 -11 11 -10 1 7 -9 16 -7 32 12 85 13 36 28 65 33
65 6 0 16 4 24 9 12 8 11 11 -4 23 -22 15 -12 18 14 4 15 -8 20 -4 31 24 9 24
21 35 41 39 17 3 29 12 29 21 0 24 -31 18 -62 -12 -29 -28 -49 -26 -27 3 28
34 161 164 170 164 4 0 12 -7 17 -15 10 -19 46 -9 38 11 -3 7 -1 16 3 19 5 3
11 -2 15 -10 3 -8 10 -15 16 -15 6 0 4 7 -4 16 -9 8 -16 20 -16 26 0 6 -12 8
-27 5 -24 -4 -26 -4 -10 8 9 7 17 17 17 23 0 6 9 26 20 44 11 18 20 42 20 54
0 12 10 26 23 32 l22 11 -23 0 c-42 2 -93 30 -145 81 -28 27 -54 50 -58 50 -4
0 -10 14 -14 30 -4 17 -10 30 -15 30 -13 0 -21 49 -11 69 7 12 6 22 -1 29 -9
9 -7 12 10 12 15 0 20 5 16 15 -4 8 -1 15 5 15 6 0 11 9 11 20 0 11 -4 20 -10
20 -13 0 -32 -38 -25 -50 3 -6 2 -10 -4 -10 -15 0 -19 23 -7 42 6 9 7 21 3 25
-5 4 -12 1 -17 -7 -6 -9 -10 -10 -10 -3 0 6 5 15 10 18 19 12 10 47 -25 89
-19 24 -35 52 -35 63 0 11 -3 23 -7 26 -6 7 -12 43 -13 82 -1 10 -6 25 -12 32
-5 7 -8 19 -5 28 4 8 2 17 -4 21 -5 3 -9 13 -7 22 1 10 -1 23 -5 30 -5 7 -3
12 6 12 8 0 17 9 20 20 9 34 32 23 95 -45 60 -64 121 -105 154 -105 10 0 18 5
18 11 0 5 -3 8 -8 5 -4 -2 -16 2 -27 10 -13 10 -16 17 -8 25 8 8 13 8 17 0 9
-14 53 -14 61 -1 10 16 22 12 28 -10 5 -21 37 -28 37 -9 0 7 10 5 25 -5 14 -9
25 -12 25 -6 0 5 11 10 25 10 13 0 29 8 34 18 11 20 4 62 -10 62 -5 0 -9 7 -9
16 0 10 -6 14 -14 11 -16 -6 -40 16 -29 26 3 4 -3 9 -13 13 -10 3 -29 10 -41
16 -12 6 -35 8 -52 6 -22 -3 -31 0 -31 9 0 19 -28 27 -45 13 -9 -7 -32 -10
-59 -8 -25 3 -49 1 -54 -4 -5 -5 -15 -2 -23 8 -9 11 -9 15 -2 10 7 -4 25 0 40
7 26 14 26 15 -20 11 -26 -2 -47 1 -47 6 0 6 -6 10 -13 10 -8 0 -14 6 -14 14
0 11 6 12 25 5 21 -8 23 -7 18 8 -6 16 8 33 29 33 6 0 3 -5 -5 -10 -13 -8 -12
-10 3 -10 9 0 17 7 17 15 0 8 7 15 15 15 18 0 20 -16 3 -23 -8 -4 -9 -6 -2 -6
6 -1 17 6 24 14 16 19 115 22 104 3 -4 -7 9 -2 30 10 20 12 44 22 52 22 8 0
14 4 14 9 0 9 54 21 102 23 19 1 25 5 20 16 -4 11 -1 14 11 9 9 -3 19 -2 22 4
9 14 25 1 25 -20 0 -10 10 -22 23 -28 27 -12 43 -12 39 2 -1 6 7 -1 18 -15 11
-14 20 -30 20 -37 0 -6 5 -15 12 -19 7 -5 8 -3 3 6 -5 8 -3 11 6 8 18 -6 31
-59 18 -74 -6 -7 -8 -26 -4 -42 8 -36 -3 -82 -19 -82 -7 0 -22 -9 -34 -20 -12
-11 -28 -20 -37 -20 -8 0 -15 -4 -15 -8 0 -5 -11 -15 -25 -22 -24 -13 -35 -50
-15 -50 6 0 10 -9 10 -19 0 -31 37 -37 60 -9 16 19 19 20 20 6 0 -10 3 -18 8
-18 9 0 8 -144 -2 -195 -12 -56 -79 -198 -116 -245 -31 -39 -31 -40 -25 -127
4 -48 15 -140 26 -203 10 -63 23 -187 29 -275 9 -157 41 -343 76 -447 13 -40
15 -70 10 -135 -6 -79 -5 -84 12 -78 35 10 54 -4 47 -36 -5 -22 -3 -29 9 -29
9 0 16 8 16 20 0 11 5 20 10 20 6 0 10 8 10 18 0 48 75 67 146 37 51 -21 100
-22 122 -2 11 10 58 24 110 34 76 13 92 20 101 39 8 17 17 22 38 20 15 -2 36
-4 46 -5 9 0 17 -8 17 -17 0 -13 7 -14 43 -8 23 4 76 9 117 10 41 1 81 2 88 3
7 1 20 10 30 22 9 11 49 37 87 56 39 19 72 37 75 40 10 9 -27 22 -80 28 -144
15 -152 17 -141 28 8 8 67 12 164 13 84 1 193 6 242 12 50 6 142 14 205 18
128 7 148 15 125 47 -12 17 -12 24 1 49 l15 29 -28 -7 c-15 -4 -32 -10 -38
-14 -27 -21 -109 -9 -120 17 -13 34 19 47 128 49 67 2 117 8 142 18 20 9 46
16 58 16 45 0 96 23 101 45 9 35 35 39 47 9 9 -24 13 -26 51 -20 30 5 45 3 58
-9 14 -13 19 -13 29 -2 13 16 143 397 171 501 10 38 24 73 31 77 8 4 25 1 40
-8 24 -14 26 -18 13 -28 -18 -13 -77 -211 -71 -236 6 -22 -14 -123 -47 -244
-14 -49 -26 -96 -26 -102 0 -19 34 -16 72 6 55 32 108 42 148 28 55 -20 120
-56 120 -67 0 -6 21 -10 48 -10 58 0 89 -8 95 -24 4 -10 -14 -13 -70 -14 -42
-1 -78 -4 -80 -6 -2 -2 -1 -10 3 -19 5 -14 17 -16 67 -12 34 3 121 8 194 12
82 3 134 10 136 17 8 22 -10 119 -24 126 -21 12 -69 58 -69 66 0 4 11 17 25
30 l25 23 0 -24 c0 -14 5 -25 11 -25 6 0 8 7 5 16 -3 9 -6 23 -6 33 0 18 -50
101 -61 101 -13 0 -30 -53 -19 -64 5 -5 10 -21 10 -33 0 -20 -5 -23 -26 -21
-16 2 -29 -3 -34 -12 -4 -8 -16 -32 -26 -53 -34 -70 -40 -71 -134 -33 -47 19
-86 39 -88 45 -2 6 8 32 23 57 l27 47 59 -6 c31 -4 64 -8 71 -9 7 -2 25 21 40
52 28 57 133 287 214 466 12 29 41 91 64 140 22 48 39 93 38 100 -2 9 -13 9
-46 -2 -24 -9 -60 -14 -80 -12 l-37 3 45 22 c52 24 110 43 132 43 9 0 18 7 22
15 3 8 14 15 25 15 24 0 39 -43 23 -63 -5 -6 -12 -24 -16 -39 -6 -26 -28 -75
-120 -271 -25 -54 -46 -102 -46 -106 0 -5 -20 -49 -45 -100 -48 -98 -54 -121
-30 -121 20 0 50 -50 65 -108 6 -26 16 -56 20 -67 9 -21 21 -113 20 -155 0
-22 6 -19 60 35 33 33 60 60 60 61 0 1 -11 2 -25 2 -34 0 -87 22 -82 36 4 12
77 9 113 -4 17 -7 29 -4 47 11 l25 19 51 -40 c28 -22 58 -52 67 -65 19 -29 16
-34 -55 -100 -26 -24 -32 -36 -27 -53 4 -12 13 -22 21 -22 7 0 15 -4 17 -9 2
-4 16 -24 32 -44 l28 -35 63 34 c35 19 81 36 104 38 51 4 47 0 -44 -49 -46
-24 -87 -39 -120 -41 -77 -6 -96 -13 -133 -45 -18 -16 -37 -27 -43 -24 -18 12
-8 -36 18 -86 27 -50 28 -50 73 -47 41 3 45 5 48 32 3 20 -3 32 -17 43 -30 20
-26 30 19 52 65 31 107 7 192 -110 27 -37 28 -41 13 -62 -19 -27 -19 -37 0
-37 8 0 17 11 21 25 8 32 13 31 48 -11 25 -31 27 -38 17 -58 -7 -12 -25 -27
-39 -33 l-27 -11 27 -1 c18 -1 29 5 33 19 9 28 21 25 55 -12 37 -41 37 -45 2
-53 -40 -8 -88 -62 -102 -112 -11 -44 -33 -56 -57 -32 -7 7 -19 9 -27 6 -39
-15 3 -161 50 -173 11 -3 48 1 82 9 56 13 63 13 77 -3 10 -11 25 -15 41 -12
18 3 22 7 13 13 -16 9 -6 14 53 24 44 7 61 25 24 25 -30 0 -33 13 -8 38 9 10
22 27 27 37 10 16 24 3 110 -100 124 -145 131 -155 119 -163 -5 -4 -15 -19
-23 -35 -14 -26 -13 -29 16 -55 16 -15 33 -35 36 -44 4 -10 11 -18 17 -18 5 0
10 -4 10 -10 0 -12 53 -90 117 -170 55 -69 73 -94 73 -101 0 -5 7 -9 15 -9 13
0 15 30 15 212 l0 212 -37 -35 c-21 -19 -57 -47 -80 -62 l-42 -26 -25 30 c-14
17 -30 28 -36 24 -5 -3 -7 0 -4 9 4 11 0 14 -15 13 -13 -1 -20 -6 -17 -14 3
-7 1 -13 -5 -13 -12 0 -4 49 10 63 8 8 80 -23 81 -35 0 -4 4 -18 10 -32 9 -26
10 -26 85 48 l75 74 -1 218 0 219 -30 -80 c-17 -44 -30 -92 -30 -106 1 -14
-10 -53 -23 -87 -14 -34 -20 -64 -15 -67 5 -4 9 -1 9 6 0 7 2 10 5 7 4 -4 -57
-148 -71 -166 -1 -2 -18 2 -38 9 l-35 13 29 33 c16 18 32 48 35 67 4 19 27 65
51 103 40 62 50 83 40 83 -2 0 -22 -29 -45 -65 -23 -36 -46 -65 -51 -65 -5 0
-12 9 -15 20 -4 12 -25 33 -48 48 -33 22 -52 27 -101 27 -56 0 -61 2 -64 22
-3 17 2 23 16 23 11 0 25 7 32 15 10 12 8 16 -11 24 -13 5 -20 10 -15 10 4 1
1 12 -8 26 -24 36 -20 42 28 49 43 7 92 37 79 50 -3 3 1 6 11 6 13 0 15 4 6
19 -22 42 -4 42 38 1 50 -47 51 -35 2 17 -42 44 -43 45 -10 22 59 -42 67 -44
31 -6 -19 21 -30 37 -25 37 6 0 19 -9 29 -20 10 -11 23 -20 29 -19 6 0 6 3 -1
6 -20 8 -15 26 5 19 9 -4 -3 13 -28 38 -51 52 -48 61 5 15 45 -40 45 -25 0 24
-19 21 -35 40 -35 43 0 21 165 -30 196 -61 l24 -24 0 262 0 262 -36 -40 -35
-40 36 56 35 55 -2 210 -3 209 -30 0 c-16 0 -33 4 -36 9 -4 4 -26 11 -50 13
-34 4 -45 1 -56 -13 -13 -17 -14 -17 -8 9 8 31 0 33 -48 13 -18 -7 -48 -11
-66 -8 -21 3 -32 1 -28 -5 8 -12 -28 -47 -40 -40 -5 3 -33 8 -63 12 -64 7 -75
12 -60 30 12 15 -3 30 -20 20 -5 -3 -16 -3 -22 2 -20 13 65 19 192 13 100 -4
119 -3 150 14 26 14 56 19 113 19 l77 1 0 938 0 938 -3520 0 -3520 0 0 -1980z
m2320 1830 c13 -8 13 -10 -2 -10 -9 0 -20 5 -23 10 -8 13 5 13 25 0z m360
-320 c0 -5 -2 -10 -4 -10 -3 0 -8 5 -11 10 -3 6 -1 10 4 10 6 0 11 -4 11 -10z
m-275 -20 c3 -5 1 -10 -4 -10 -6 0 -11 5 -11 10 0 6 2 10 4 10 3 0 8 -4 11
-10z m315 -112 c0 -4 -9 -8 -20 -8 -11 0 -20 4 -20 8 0 4 9 8 20 8 11 0 20 -4
20 -8z m248 -108 c10 -16 10 -20 -1 -20 -14 0 -37 20 -37 32 0 16 25 8 38 -12z
m9 -36 c-3 -3 -12 -4 -19 -1 -8 3 -5 6 6 6 11 1 17 -2 13 -5z m63 -159 c-7 -8
-20 -15 -29 -15 -11 1 -8 5 9 15 32 18 35 18 20 0z m-1390 -96 c0 -11 -4 -19
-9 -19 -10 0 -21 24 -21 47 0 13 3 13 15 3 8 -7 15 -21 15 -31z m60 -66 c0
-13 -4 -23 -9 -23 -13 0 -22 30 -15 53 5 16 8 17 15 6 5 -8 9 -24 9 -36z m718
14 c10 -11 6 -14 -18 -14 -16 0 -27 4 -25 8 3 3 -5 10 -18 13 -21 7 -21 7 -2
15 21 9 44 1 63 -22z m-755 -35 c11 -21 37 -49 62 -65 50 -32 65 -62 42 -84
-45 -45 -136 62 -137 160 0 37 12 34 33 -11z m1110 -72 c-6 -22 -18 -26 -28
-10 -3 6 -18 7 -33 4 -26 -6 -26 -6 -7 9 11 9 32 17 47 17 21 0 25 -4 21 -20z
m-1333 -344 c0 -3 -4 -8 -10 -11 -5 -3 -10 -1 -10 4 0 6 5 11 10 11 6 0 10 -2
10 -4z m4800 -166 c17 -11 13 -28 -45 -190 -37 -103 -65 -150 -92 -150 -8 0
-16 7 -20 16 -6 17 1 39 64 214 19 52 36 101 38 108 5 14 34 16 55 2z m-5040
-16 c0 -8 -5 -12 -10 -9 -6 4 -8 11 -5 16 9 14 15 11 15 -7z m5120 -210 c0 -8
6 -14 14 -14 8 0 16 -7 19 -14 4 -9 1 -13 -7 -10 -7 3 -38 -19 -70 -49 -53
-49 -80 -88 -202 -289 -26 -43 -48 -78 -50 -78 -1 0 -2 9 -1 20 1 11 4 20 8
20 4 0 10 14 14 30 4 17 12 30 19 30 7 0 19 19 27 43 7 23 19 48 26 55 7 7 13
19 13 25 0 7 11 24 24 38 13 14 27 35 30 46 4 12 13 27 21 33 8 7 15 26 15 42
0 16 4 27 9 23 5 -3 13 5 16 17 11 35 34 56 56 51 10 -3 19 -12 19 -19z m120
-25 c0 -6 -7 -9 -15 -5 -8 3 -15 1 -15 -4 0 -6 6 -10 13 -11 9 0 9 -2 0 -6 -7
-2 -20 2 -28 10 -11 12 -12 17 -2 20 22 10 47 7 47 -4z m-2362 -24 c-3 -3 -9
2 -12 12 -6 14 -5 15 5 6 7 -7 10 -15 7 -18z m2382 -5 c0 -5 -5 -10 -11 -10
-5 0 -7 5 -4 10 3 6 8 10 11 10 2 0 4 -4 4 -10z m-2369 -72 c1 -13 3 -39 5
-58 1 -19 -1 -41 -6 -49 -4 -8 -5 -24 -1 -35 9 -25 -6 -89 -19 -81 -5 3 -7 12
-4 19 3 8 1 17 -5 21 -7 4 -8 12 -2 23 5 10 9 28 9 42 -2 64 6 140 14 140 4 0
9 -10 9 -22z m-1962 -38 c-24 -46 -39 -59 -39 -34 0 15 46 74 57 74 1 0 -7
-18 -18 -40z m-199 4 c0 -8 -4 -12 -10 -9 -5 3 -10 10 -10 16 0 5 5 9 10 9 6
0 10 -7 10 -16z m-392 -35 c24 0 22 -2 -12 -15 -31 -11 -41 -11 -47 -2 -11 17
0 31 18 24 8 -3 27 -6 41 -7z m436 -33 c14 -28 16 -40 7 -45 -9 -6 -9 -15 -1
-35 6 -16 14 -24 21 -20 7 4 10 1 7 -7 -7 -21 -32 -17 -36 6 -2 11 -6 27 -9
35 -3 8 -6 31 -8 50 -1 19 -7 36 -14 38 -15 5 -14 25 2 20 6 -2 20 -21 31 -42z
m1977 -13 c-10 -17 -10 -16 -11 3 0 23 13 41 18 25 2 -6 -1 -18 -7 -28z
m-1927 12 c6 -17 4 -18 -18 -9 -20 8 -21 24 -2 24 8 0 16 -7 20 -15z m166 2
c0 -2 -12 -14 -27 -28 l-28 -24 24 28 c23 25 31 32 31 24z m-126 -32 c13 -20
14 -29 6 -43 -11 -16 -11 -16 -6 1 4 13 -1 19 -24 24 -17 3 -30 10 -30 15 0 6
7 8 15 4 9 -3 15 0 15 9 0 21 5 19 24 -10z m-1001 -7 c12 -6 38 -24 57 -40 19
-15 40 -28 47 -28 6 0 14 -4 17 -9 12 -18 -69 8 -107 36 -56 39 -65 69 -14 41z
m1067 -58 c0 -5 -5 -10 -11 -10 -5 0 -7 5 -4 10 3 6 8 10 11 10 2 0 4 -4 4
-10z m-80 -16 c0 -13 -30 -34 -47 -33 -14 0 -15 2 -3 6 8 3 19 12 23 19 8 14
27 19 27 8z m107 -20 c-3 -3 -12 -4 -19 -1 -8 3 -5 6 6 6 11 1 17 -2 13 -5z
m-160 -71 c-3 -10 -5 -4 -5 12 0 17 2 24 5 18 2 -7 2 -21 0 -30z m1178 20 c7
-12 9 -82 5 -191 -4 -137 -8 -175 -20 -182 -12 -7 -12 -16 -4 -49 15 -56 7
-100 -23 -114 -35 -16 -42 1 -26 68 8 34 16 142 19 250 3 105 7 200 10 213 5
26 25 29 39 5z m-1156 -65 c0 -13 -4 -32 -8 -43 -7 -17 -8 -16 -13 10 -3 16
-4 35 -1 42 8 21 23 15 22 -9z m-2 -130 c-2 -13 -4 -3 -4 22 0 25 2 35 4 23 2
-13 2 -33 0 -45z m4892 -30 c-126 -189 -296 -418 -310 -418 -26 0 43 114 118
196 21 23 58 69 83 104 64 88 159 210 165 210 3 0 -22 -42 -56 -92z m-2624
-38 c3 -5 -1 -10 -10 -10 -9 0 -13 5 -10 10 3 6 8 10 10 10 2 0 7 -4 10 -10z
m2210 -99 c-11 -23 -27 -33 -70 -46 -51 -14 -55 -17 -49 -40 4 -18 2 -25 -9
-25 -22 0 -37 23 -27 40 18 28 10 32 -11 6 -12 -15 -29 -26 -38 -24 -9 1 -31
-6 -50 -16 -46 -25 -60 -8 -26 33 19 21 36 31 55 31 16 0 30 4 32 9 5 15 48
24 48 10 0 -7 8 -5 20 6 12 10 46 24 78 31 31 7 58 13 60 13 1 1 -4 -12 -13
-28z m45 12 c-1 -25 -14 -53 -26 -53 -17 0 -18 14 -2 40 13 20 28 27 28 13z
m-5055 -13 c3 -5 -1 -10 -10 -10 -9 0 -13 5 -10 10 3 6 8 10 10 10 2 0 7 -4
10 -10z m4477 -105 c6 -14 8 -28 5 -32 -9 -8 -47 27 -47 44 0 23 30 14 42 -12z
m518 -20 c0 -8 -4 -15 -10 -15 -5 0 -10 7 -10 15 0 8 5 15 10 15 6 0 10 -7 10
-15z m370 -167 c0 -5 -3 -8 -7 -8 -10 0 -43 32 -43 42 0 11 49 -24 50 -34z
m-5255 -108 c3 -5 1 -10 -4 -10 -6 0 -11 5 -11 10 0 6 2 10 4 10 3 0 8 -4 11
-10z m4809 -36 c8 -20 7 -21 -19 -26 -12 -2 -19 2 -17 10 1 6 -2 12 -8 12 -5
0 -10 5 -10 10 0 17 47 11 54 -6z m160 -50 c9 -22 8 -24 -9 -24 -8 0 -15 9
-15 20 0 24 15 27 24 4z m-309 -94 c3 -5 -3 -10 -14 -10 -12 0 -21 5 -21 10 0
6 6 10 14 10 8 0 18 -4 21 -10z m35 -29 c0 -13 -27 -21 -46 -14 -13 5 -13 7
-2 14 17 11 48 11 48 0z m110 -67 c0 -8 -5 -12 -10 -9 -6 4 -8 11 -5 16 9 14
15 11 15 -7z m420 -19 c-10 -12 -15 -13 -21 -3 -11 17 11 42 24 29 7 -7 6 -15
-3 -26z m85 -325 c10 -11 14 -20 9 -20 -5 0 -15 9 -22 20 -7 11 -11 20 -9 20
2 0 12 -9 22 -20z"/>
<path d="M2616 3181 c-3 -5 1 -11 9 -15 8 -3 15 -1 15 4 0 13 -18 22 -24 11z"/>
<path d="M2345 3090 c-3 -5 -15 -10 -26 -10 -11 0 -18 -4 -14 -10 7 -11 55 8
55 22 0 11 -7 10 -15 -2z"/>
<path d="M2210 3060 c0 -5 18 -10 40 -10 22 0 40 5 40 10 0 6 -18 10 -40 10
-22 0 -40 -4 -40 -10z"/>
<path d="M2437 2652 c-20 -22 -22 -65 -4 -80 6 -6 26 -14 42 -17 17 -4 42 -19
56 -32 24 -22 30 -23 67 -13 23 6 44 15 47 21 4 6 -3 7 -20 3 -14 -3 -25 -2
-23 2 7 23 -29 51 -73 58 -45 7 -59 20 -71 64 -3 10 -8 8 -21 -6z"/>
<path d="M1455 2560 c3 -5 8 -10 11 -10 2 0 4 5 4 10 0 6 -5 10 -11 10 -5 0
-7 -4 -4 -10z"/>
<path d="M2220 2529 c0 -5 5 -7 10 -4 6 3 10 8 10 11 0 2 -4 4 -10 4 -5 0 -10
-5 -10 -11z"/>
<path d="M1490 2509 c0 -6 7 -17 15 -25 8 -9 15 -11 15 -5 0 5 -5 13 -10 16
-6 4 -8 11 -5 16 4 5 1 9 -4 9 -6 0 -11 -5 -11 -11z"/>
<path d="M1550 2461 c0 -5 11 -16 25 -25 22 -14 25 -15 25 -1 0 8 -7 15 -15
15 -8 0 -15 5 -15 10 0 6 -4 10 -10 10 -5 0 -10 -4 -10 -9z"/>
<path d="M2305 2451 c-53 -25 -31 -33 77 -31 27 0 62 -7 80 -16 30 -16 45 -19
91 -23 10 0 22 -13 28 -28 12 -32 35 -17 24 16 -4 15 -15 21 -36 21 -18 0 -29
5 -29 14 0 9 -7 12 -18 9 -10 -2 -29 5 -42 17 -17 15 -33 20 -52 16 -17 -3
-33 0 -42 9 -19 19 -32 19 -81 -4z"/>
<path d="M1687 2369 c-19 -11 -14 -30 6 -25 7 1 9 1 5 -1 -12 -7 34 -73 50
-72 10 0 12 3 6 5 -6 3 -9 16 -6 29 3 17 -1 27 -12 31 -9 3 -14 10 -11 14 9
15 -19 29 -38 19z"/>
<path d="M2306 2372 c-9 -16 5 -44 20 -38 7 3 23 -3 36 -13 30 -23 107 -44
144 -39 l29 4 -30 13 c-16 7 -53 23 -80 37 -28 13 -59 24 -71 24 -11 0 -25 5
-31 11 -7 7 -13 7 -17 1z"/>
<path d="M1644 2331 c3 -5 -2 -12 -11 -15 -14 -6 -15 -9 -4 -15 7 -5 12 -12
12 -17 -1 -16 11 -48 29 -74 9 -14 37 -77 62 -140 48 -119 71 -241 49 -254
-15 -10 -14 -41 2 -54 6 -5 23 -13 36 -17 22 -7 23 -5 17 20 -6 22 -4 26 8 22
23 -9 20 6 -4 21 -23 14 -27 37 -5 28 20 -7 19 3 -2 26 -10 11 -12 18 -4 18 8
0 9 5 1 19 -14 27 -13 31 8 24 16 -6 16 -5 0 14 -20 22 -24 38 -6 27 12 -7 5
8 -16 35 -6 7 -12 29 -13 48 -1 19 -7 41 -13 48 -7 8 -9 19 -5 25 5 9 -18 58
-66 139 -16 27 -65 81 -74 81 -4 0 -4 -4 -1 -9z m166 -553 c0 -5 -4 -8 -10 -8
-5 0 -10 10 -10 23 0 18 2 19 10 7 5 -8 10 -18 10 -22z"/>
<path d="M1465 2320 c-3 -5 1 -10 9 -10 9 0 16 5 16 10 0 6 -4 10 -9 10 -6 0
-13 -4 -16 -10z"/>
<path d="M1338 2273 c7 -3 16 -2 19 1 4 3 -2 6 -13 5 -11 0 -14 -3 -6 -6z"/>
<path d="M1420 2226 c0 -9 40 -13 46 -5 3 5 -6 9 -20 9 -14 0 -26 -2 -26 -4z"/>
<path d="M1760 2224 c1 -19 28 -45 35 -34 4 6 5 12 4 13 -2 2 -12 9 -21 16
-10 7 -18 10 -18 5z"/>
<path d="M1357 2104 c-6 -33 0 -51 18 -58 10 -3 12 6 11 37 -3 47 -21 61 -29
21z"/>
<path d="M1597 2088 c15 -24 41 -59 58 -78 17 -19 47 -70 68 -113 20 -42 42
-77 48 -77 25 0 -29 130 -70 171 -35 34 -71 78 -71 85 0 7 -48 54 -56 54 -2 0
8 -19 23 -42z"/>
<path d="M2483 2115 c0 -8 4 -15 9 -15 4 0 8 4 8 9 0 6 -4 12 -8 15 -5 3 -9
-1 -9 -9z"/>
<path d="M6895 2051 c-15 -6 -1 -11 50 -18 39 -6 76 -8 83 -6 25 10 11 20 -34
27 -57 7 -73 7 -99 -3z"/>
<path d="M1407 2043 c-12 -11 -8 -23 8 -23 8 0 15 7 15 15 0 16 -12 20 -23 8z"/>
<path d="M2526 2035 c-3 -8 -1 -15 4 -15 6 0 10 7 10 15 0 8 -2 15 -4 15 -2 0
-6 -7 -10 -15z"/>
<path d="M1445 2020 c-3 -5 -3 -15 1 -21 6 -11 23 6 24 24 0 10 -18 9 -25 -3z"/>
<path d="M2407 2006 c-4 -10 -1 -13 9 -9 15 6 19 23 5 23 -5 0 -11 -7 -14 -14z"/>
<path d="M2537 1971 c-4 -17 -3 -21 5 -13 5 5 8 16 6 23 -3 8 -7 3 -11 -10z"/>
<path d="M2505 1931 c-6 -11 9 -23 19 -14 9 9 7 23 -3 23 -6 0 -12 -4 -16 -9z"/>
<path d="M2550 1904 c0 -8 5 -12 10 -9 6 3 10 10 10 16 0 5 -4 9 -10 9 -5 0
-10 -7 -10 -16z"/>
<path d="M2318 1882 c-19 -4 -25 -32 -8 -32 6 0 10 5 10 10 0 6 7 6 18 -1 11
-7 19 -24 20 -43 4 -107 22 -186 22 -98 0 22 4 43 9 46 5 4 8 25 6 49 -2 34
-8 45 -31 57 -16 9 -37 14 -46 12z"/>
<path d="M2484 1859 c-8 -17 -13 -41 -10 -52 3 -12 -1 -28 -8 -37 -12 -13 -20
-45 -28 -105 -2 -11 -7 -23 -11 -26 -5 -3 -10 -12 -11 -20 -5 -26 -18 -74 -23
-89 -3 -8 -8 -31 -10 -50 -2 -19 -7 -37 -11 -40 -8 -5 -35 -85 -38 -110 0 -8
-2 -19 -4 -25 -1 -5 -3 -14 -4 -20 -1 -5 -8 -23 -14 -39 -7 -16 -10 -36 -7
-43 3 -8 -1 -21 -9 -29 -8 -7 -17 -19 -19 -26 -4 -10 -7 -10 -15 1 -7 9 -12
10 -16 2 -4 -6 -2 -11 3 -11 6 0 11 -5 11 -11 0 -6 -6 -9 -13 -6 -8 3 -20 1
-28 -4 -10 -6 -10 -9 -1 -9 6 0 12 -6 12 -14 0 -8 -8 -13 -17 -12 -11 0 -17
-5 -15 -14 1 -9 -7 -5 -19 10 -12 14 -25 24 -29 23 -5 -1 -11 4 -14 13 -4 10
-2 13 6 8 6 -4 8 -3 5 4 -4 5 1 24 10 40 14 25 15 33 4 46 -7 9 -17 13 -22 10
-5 -3 -9 -1 -9 4 0 6 7 13 16 16 8 3 13 10 9 15 -3 5 -1 12 5 16 16 10 12 25
-6 25 -14 0 -14 3 -4 15 7 9 10 18 7 21 -3 3 -1 19 5 36 8 24 8 32 -3 39 -11
7 -12 12 -1 29 18 29 15 42 -9 35 -19 -6 -20 -4 -13 32 9 47 29 80 55 88 21 7
26 25 7 25 -6 0 -2 10 10 23 28 30 30 58 3 33 -11 -10 -34 -25 -52 -34 -18
-10 -35 -24 -38 -32 -4 -13 -2 -13 12 -1 15 12 17 11 17 -4 0 -21 -30 -85 -40
-85 -4 0 -7 -21 -8 -47 0 -26 -5 -49 -11 -51 -6 -2 -11 -10 -11 -19 0 -10 6
-12 21 -8 18 6 19 4 11 -12 -5 -10 -7 -24 -5 -30 3 -7 0 -13 -5 -13 -9 0 -24
-50 -26 -87 -1 -7 -14 -24 -29 -37 -34 -29 -29 -42 21 -56 31 -8 39 -7 49 7 9
12 10 19 2 24 -6 3 0 8 14 11 23 4 24 3 14 -16 -12 -19 -18 -29 -43 -59 -6 -7
-15 -23 -18 -35 -6 -18 0 -25 46 -47 30 -15 54 -21 56 -15 2 5 15 10 29 10 18
0 24 4 19 15 -7 18 5 20 23 3 11 -11 11 -9 1 11 -8 15 -8 27 -2 33 11 11 52 1
52 -13 0 -5 5 -9 10 -9 15 0 12 17 -7 36 -16 16 -16 16 5 10 17 -6 21 -4 16 7
-3 8 0 18 7 23 8 4 10 3 5 -4 -4 -7 -1 -12 8 -12 8 0 20 -9 26 -19 5 -11 24
-23 42 -26 18 -4 39 -12 47 -18 7 -6 18 -12 25 -13 6 -1 19 -5 29 -9 9 -4 17
-3 17 3 0 5 -16 13 -36 16 -33 7 -54 29 -40 43 3 4 23 1 43 -5 28 -9 47 -9 75
0 54 16 47 28 -12 21 -37 -4 -50 -2 -50 7 0 9 -4 9 -13 2 -8 -7 -28 -7 -60 -1
-60 11 -74 19 -56 30 11 7 10 9 -3 9 -12 0 -18 8 -18 23 1 20 2 20 11 5 14
-25 26 -22 33 6 3 14 15 27 26 31 10 3 22 15 25 25 3 10 15 22 26 25 10 4 19
12 19 18 0 7 9 18 20 25 11 7 20 18 20 26 0 7 8 38 19 69 15 47 16 57 4 57 -8
0 -12 -4 -9 -9 3 -5 -1 -14 -9 -21 -7 -6 -11 -18 -8 -26 3 -8 0 -14 -6 -14 -6
0 -20 -20 -31 -45 -16 -36 -27 -47 -51 -52 -22 -4 -27 -8 -17 -14 11 -7 10
-11 -2 -19 -8 -5 -21 -10 -28 -10 -7 0 -10 -4 -7 -10 6 -10 0 -12 -47 -14 -27
-2 -41 13 -15 15 6 1 18 2 26 3 17 1 64 83 56 96 -13 21 -26 5 -49 -62 -3 -10
-10 -18 -16 -18 -13 0 -13 27 1 35 6 4 8 13 5 20 -3 8 2 19 10 26 8 7 13 18
10 26 -3 8 1 16 9 20 12 4 13 9 5 18 -9 10 -6 16 10 25 11 6 18 15 15 20 -3 5
-1 18 5 30 5 11 15 29 20 40 6 11 10 28 10 38 0 10 4 22 9 27 6 6 12 22 15 37
2 15 7 32 11 38 3 5 -1 10 -10 10 -12 0 -15 5 -11 16 3 9 6 18 6 20 0 2 6 4
14 4 10 0 13 7 9 23 -9 36 -6 64 10 96 13 26 13 31 1 31 -7 0 -21 -14 -30 -31z
m-354 -423 c0 -3 -4 -8 -10 -11 -5 -3 -10 -1 -10 4 0 6 5 11 10 11 6 0 10 -2
10 -4z m22 -58 c-7 -7 -12 -8 -12 -2 0 6 3 14 7 17 3 4 9 5 12 2 2 -3 -1 -11
-7 -17z m-18 -113 c-4 -8 -8 -15 -10 -15 -2 0 -4 7 -4 15 0 8 4 15 10 15 5 0
7 -7 4 -15z m-34 -45 c-6 -11 -17 -20 -25 -20 -12 0 -12 4 3 19 23 26 35 26
22 1z m5 -40 c3 -5 2 -10 -4 -10 -5 0 -13 5 -16 10 -3 6 -2 10 4 10 5 0 13 -4
16 -10z"/>
<path d="M2530 1840 c-22 -31 -13 -41 14 -14 15 14 22 44 12 44 -3 0 -14 -13
-26 -30z"/>
<path d="M2321 1814 c0 -11 3 -14 6 -6 3 7 2 16 -1 19 -3 4 -6 -2 -5 -13z"/>
<path d="M2280 1810 c0 -5 5 -10 10 -10 6 0 10 5 10 10 0 6 -4 10 -10 10 -5 0
-10 -4 -10 -10z"/>
<path d="M2295 1780 c3 -5 8 -10 11 -10 2 0 4 5 4 10 0 6 -5 10 -11 10 -5 0
-7 -4 -4 -10z"/>
<path d="M2280 1750 c0 -5 5 -12 11 -15 6 -4 14 -17 19 -29 8 -19 9 -17 9 10
1 24 -4 33 -19 37 -11 3 -20 1 -20 -3z"/>
<path d="M1827 1714 c6 -15 23 -19 23 -5 0 5 -7 11 -14 14 -10 4 -13 1 -9 -9z"/>
<path d="M2523 1720 c4 -8 10 -23 13 -32 4 -10 13 -18 20 -18 21 0 17 12 -13
40 -14 14 -23 18 -20 10z"/>
<path d="M2341 1704 c0 -11 3 -14 6 -6 3 7 2 16 -1 19 -3 4 -6 -2 -5 -13z"/>
<path d="M1830 1657 c0 -19 16 -31 24 -18 3 5 -1 14 -9 21 -12 10 -15 10 -15
-3z"/>
<path d="M2524 1648 c-22 -34 -54 -112 -54 -131 0 -28 10 -15 50 61 23 44 30
66 23 73 -8 8 -13 7 -19 -3z"/>
<path d="M1877 1626 c-5 -12 -13 -15 -28 -11 -15 5 -20 3 -17 -6 3 -8 17 -15
31 -17 15 -2 27 -10 27 -18 0 -8 5 -14 10 -14 13 0 12 18 -4 55 -10 25 -13 27
-19 11z"/>
<path d="M2202 1573 c-21 -15 -21 -16 -5 -29 16 -12 16 -15 3 -23 -8 -6 -11
-13 -8 -16 7 -8 57 25 58 38 0 4 -6 7 -14 7 -9 0 -12 7 -9 20 6 24 5 24 -25 3z"/>
<path d="M1850 1540 c0 -5 7 -10 15 -10 8 0 15 5 15 10 0 6 -7 10 -15 10 -8 0
-15 -4 -15 -10z"/>
<path d="M1800 1531 c0 -10 30 -24 37 -17 3 3 2 9 -2 15 -8 13 -35 15 -35 2z"/>
<path d="M2255 1510 c-4 -12 -5 -24 -2 -27 3 -2 8 5 12 17 4 12 5 24 2 27 -3
2 -8 -5 -12 -17z"/>
<path d="M1733 1488 c-35 -17 -27 -30 12 -22 23 4 35 2 35 -5 0 -6 14 -11 31
-11 25 0 28 2 17 13 -18 16 -56 37 -65 36 -5 0 -18 -5 -30 -11z"/>
<path d="M2455 1480 c-3 -5 -1 -10 4 -10 6 0 11 5 11 10 0 6 -2 10 -4 10 -3 0
-8 -4 -11 -10z"/>
<path d="M4671 1444 c-61 -16 -81 -29 -81 -52 0 -11 8 -13 38 -8 20 3 58 6 83
6 50 0 65 15 54 51 -7 22 -21 23 -94 3z"/>
<path d="M5055 1450 c-4 -6 8 -10 30 -10 22 0 34 4 30 10 -3 6 -17 10 -30 10
-13 0 -27 -4 -30 -10z"/>
<path d="M2437 1422 c-23 -25 -21 -30 6 -28 18 1 22 6 19 23 -5 28 -5 28 -25
5z"/>
<path d="M2240 1414 c0 -8 5 -12 10 -9 6 4 8 11 5 16 -9 14 -15 11 -15 -7z"/>
<path d="M4440 1390 c0 -5 20 -10 44 -10 25 0 48 5 51 10 4 6 -13 10 -44 10
-28 0 -51 -4 -51 -10z"/>
<path d="M5535 1367 c-11 -9 -14 -16 -8 -20 6 -4 22 2 34 13 18 14 20 19 8 20
-8 0 -23 -6 -34 -13z"/>
<path d="M5865 1371 c-3 -6 -3 -22 1 -36 3 -14 1 -31 -6 -39 -9 -12 -5 -14 29
-13 43 2 56 21 21 30 -13 3 -20 14 -20 30 0 28 -15 44 -25 28z"/>
<path d="M5247 1344 c-10 -11 -155 -23 -284 -25 -95 -1 -128 2 -135 12 -7 11
-8 9 -4 -5 5 -13 2 -17 -9 -12 -8 3 -15 1 -15 -5 0 -6 -13 -37 -29 -70 -30
-59 -28 -69 10 -48 15 7 24 7 34 -1 10 -8 22 -7 49 4 20 8 43 13 51 10 8 -3
20 -2 27 2 7 5 23 7 35 6 25 -4 72 26 73 46 0 6 3 12 8 13 38 4 133 6 120 2
-16 -4 -26 -23 -13 -23 15 0 64 38 57 45 -4 4 26 5 67 3 40 -3 76 -11 80 -17
8 -12 101 -4 101 9 0 8 -78 30 -108 30 -11 0 -25 7 -32 15 -12 15 -71 21 -83
9z"/>
<path d="M2205 1330 c3 -5 8 -10 11 -10 2 0 4 5 4 10 0 6 -5 10 -11 10 -5 0
-7 -4 -4 -10z"/>
<path d="M2210 1290 c0 -5 4 -10 9 -10 6 0 13 5 16 10 3 6 -1 10 -9 10 -9 0
-16 -4 -16 -10z"/>
<path d="M2010 1240 c0 -5 5 -10 10 -10 6 0 10 5 10 10 0 6 -4 10 -10 10 -5 0
-10 -4 -10 -10z"/>
<path d="M2190 1240 c8 -5 20 -10 25 -10 6 0 3 5 -5 10 -8 5 -19 10 -25 10 -5
0 -3 -5 5 -10z"/>
<path d="M2513 1243 c-24 -9 -13 -23 18 -23 20 0 29 4 27 13 -5 13 -26 18 -45
10z"/>
<path d="M5118 1243 c7 -3 16 -2 19 1 4 3 -2 6 -13 5 -11 0 -14 -3 -6 -6z"/>
<path d="M2465 1220 c-3 -5 1 -10 9 -10 9 0 16 5 16 10 0 6 -4 10 -9 10 -6 0
-13 -4 -16 -10z"/>
<path d="M5160 1208 c0 -23 4 -28 25 -28 19 0 25 5 25 21 0 16 -4 19 -17 15
-9 -4 -20 -1 -25 6 -5 9 -8 4 -8 -14z"/>
<path d="M5237 1223 c-12 -11 -8 -23 8 -23 8 0 15 7 15 15 0 16 -12 20 -23 8z"/>
<path d="M2573 1170 c-13 -5 -23 -12 -23 -16 0 -8 53 5 65 17 12 12 -12 11
-42 -1z"/>
<path d="M2033 1140 c-3 -11 -13 -20 -22 -21 -9 0 -3 -5 14 -10 23 -7 34 -5
47 9 16 16 16 18 -8 29 -23 11 -27 10 -31 -7z"/>
<path d="M5849 1143 c-8 -11 -19 -22 -25 -26 -10 -6 -207 -39 -319 -53 -22 -3
-71 -12 -110 -21 -110 -23 -159 -28 -151 -14 5 7 -4 11 -28 11 -23 0 -35 -4
-34 -12 3 -15 -3 -16 -364 -72 l-278 -42 -20 21 c-11 12 -20 27 -20 33 0 7 -6
12 -13 12 -9 0 -12 -9 -9 -28 5 -39 -13 -50 -86 -54 -34 -2 -62 -6 -62 -10 0
-25 71 -33 255 -31 89 2 102 4 114 22 17 26 88 30 97 6 4 -10 20 -15 46 -15
35 0 39 -2 33 -20 -3 -11 -2 -20 3 -20 5 0 9 10 9 23 1 56 1 57 44 57 27 0 46
-6 53 -16 16 -21 108 -10 99 12 -7 19 83 20 94 0 7 -11 31 -12 137 -4 70 5
130 8 131 6 2 -2 6 -33 9 -68 3 -36 8 -97 12 -136 l6 -71 29 11 c28 10 28 11
8 18 -22 8 -22 9 -3 23 18 14 18 14 1 15 -26 0 -11 20 16 21 17 0 15 3 -11 12
-26 10 -30 15 -20 25 9 9 9 12 0 12 -7 0 -12 5 -12 10 0 6 9 10 21 10 19 0 18
2 -6 24 -18 17 -22 26 -13 29 10 4 10 6 -1 6 -11 1 -11 4 -1 16 9 11 9 15 1
15 -7 0 -10 4 -6 9 3 5 1 12 -5 16 -5 3 -10 13 -10 20 0 23 45 28 83 10 19 -9
46 -17 61 -19 32 -3 36 -7 42 -42 11 -59 65 -280 75 -303 9 -22 13 -23 67 -17
31 4 61 11 66 16 5 5 5 25 2 45 -7 34 -9 36 -34 30 -35 -10 -73 -8 -86 5 -7 7
9 10 47 10 52 0 67 7 51 23 -3 3 -17 2 -30 -3 -25 -10 -90 -2 -78 9 3 3 26 6
52 6 25 0 47 5 49 12 3 8 -13 10 -58 6 -45 -5 -60 -3 -55 5 4 7 27 12 52 12
33 0 44 4 44 15 0 13 -9 15 -52 9 -45 -6 -51 -5 -45 9 4 10 2 17 -3 17 -6 0
-10 5 -10 10 0 6 7 10 16 10 13 0 10 5 -8 20 -15 11 -25 28 -24 42 1 13 -1 25
-5 28 -4 3 -9 14 -11 25 -1 11 -7 23 -13 27 -5 4 9 8 33 8 26 0 41 -4 37 -10
-3 -5 2 -10 12 -10 15 0 16 -2 3 -11 -11 -8 -8 -9 15 -5 52 10 107 16 205 22
52 3 99 9 104 12 5 3 36 4 69 3 l60 -3 -17 27 c-9 14 -14 30 -11 35 3 6 -3 10
-14 10 -12 0 -21 4 -21 8 0 5 -8 19 -19 30 -19 23 -51 30 -51 12 0 -5 -18 -10
-40 -10 -22 0 -40 3 -40 8 0 4 -23 7 -52 7 l-52 0 0 37 c-2 46 -10 55 -27 31z
m-121 -86 c-16 -6 -28 -17 -28 -24 0 -12 -14 -18 -35 -13 -5 1 -7 -2 -3 -6 12
-12 -28 -35 -48 -27 -12 4 -15 3 -10 -5 10 -16 -7 -15 -22 0 -10 10 -15 10
-21 -1 -10 -15 -104 -26 -341 -36 -85 -4 -162 -8 -170 -10 -8 -1 -78 -5 -155
-8 -154 -6 -140 -2 98 33 75 11 159 20 185 20 27 0 73 7 103 16 54 16 401 72
449 72 l25 0 -27 -11z m342 -21 c0 -3 -4 -8 -10 -11 -5 -3 -10 -1 -10 4 0 6 5
11 10 11 6 0 10 -2 10 -4z"/>
<path d="M2170 1131 c0 -12 5 -21 10 -21 6 0 10 6 10 14 0 8 -4 18 -10 21 -5
3 -10 -3 -10 -14z"/>
<path d="M3853 1109 c12 -7 35 -7 70 -1 l52 10 -70 1 c-53 0 -66 -2 -52 -10z"/>
<path d="M6190 1092 c6 -13 14 -21 18 -18 3 4 -2 14 -12 24 -18 16 -18 16 -6
-6z"/>
<path d="M1510 1084 c0 -8 5 -12 10 -9 6 4 8 11 5 16 -9 14 -15 11 -15 -7z"/>
<path d="M2375 1080 c-3 -4 8 -10 25 -12 16 -2 27 -1 25 3 -7 11 -44 18 -50 9z"/>
<path d="M2580 1057 c0 -2 27 -31 60 -64 66 -66 72 -88 39 -134 -11 -16 -24
-55 -29 -87 -5 -31 -20 -91 -35 -132 -14 -41 -26 -94 -26 -117 -1 -24 -6 -46
-13 -50 -21 -13 -27 -82 -11 -120 8 -19 19 -32 25 -28 5 3 7 0 4 -8 -3 -8 2
-20 11 -27 12 -10 15 -10 15 1 1 8 15 23 32 34 27 17 34 30 45 85 8 36 15 81
17 101 2 20 5 40 9 45 7 13 17 86 22 169 4 85 -26 248 -52 277 -26 29 -113 71
-113 55z"/>
<path d="M2200 1009 c0 -6 7 -9 15 -5 8 3 15 1 15 -4 0 -5 6 -7 14 -4 8 3 17
1 21 -5 3 -6 18 -11 33 -11 l27 1 -24 19 c-25 22 -101 28 -101 9z"/>
<path d="M1636 984 c-4 -9 -4 -19 -2 -21 8 -8 26 8 26 23 0 19 -16 18 -24 -2z"/>
<path d="M2970 980 c0 -13 28 -25 38 -16 3 4 0 11 -8 16 -20 13 -30 12 -30 0z"/>
<path d="M2904 893 c7 -85 52 -195 103 -249 16 -16 46 -50 67 -74 52 -59 73
-71 195 -113 57 -20 110 -44 118 -54 14 -17 14 -17 9 0 -4 12 -2 17 6 15 7 -3
14 -17 16 -31 4 -34 22 -35 22 -1 0 14 4 33 9 42 6 12 0 34 -20 72 -15 30 -33
66 -39 80 -6 14 -21 33 -33 43 -12 10 -17 20 -12 23 19 8 5 73 -17 80 -11 3
-21 4 -23 2 -2 -1 1 -28 6 -58 7 -45 6 -57 -7 -70 -13 -12 -17 -12 -21 -2 -6
15 -62 47 -82 47 -8 0 -22 14 -31 30 -12 21 -24 30 -41 29 -13 -1 -26 1 -29 5
-3 3 -21 18 -40 32 -23 18 -35 35 -36 53 -1 16 -17 42 -43 67 -22 22 -46 56
-53 75 -21 58 -31 39 -24 -43z"/>
<path d="M4400 955 c8 -10 7 -14 -2 -18 -8 -4 -7 -6 5 -6 9 -1 17 4 17 9 0 6
1 13 3 17 1 3 -6 7 -16 9 -14 2 -16 -1 -7 -11z"/>
<path d="M4350 950 c0 -5 4 -10 9 -10 6 0 13 5 16 10 3 6 -1 10 -9 10 -9 0
-16 -4 -16 -10z"/>
<path d="M6118 923 c18 -2 45 -2 60 0 15 2 0 4 -33 4 -33 0 -45 -2 -27 -4z"/>
<path d="M5923 913 c9 -2 23 -2 30 0 6 3 -1 5 -18 5 -16 0 -22 -2 -12 -5z"/>
<path d="M5741 891 c-11 -7 -11 -9 0 -14 10 -4 10 -6 2 -6 -19 -1 -16 -21 3
-21 8 0 12 -4 9 -10 -3 -5 1 -10 10 -10 13 0 15 5 10 18 -5 9 -8 25 -9 35 0
19 -5 21 -25 8z"/>
<path d="M1860 865 c-7 -9 -8 -15 -2 -15 5 0 12 7 16 15 3 8 4 15 2 15 -2 0
-9 -7 -16 -15z"/>
<path d="M3555 860 c-5 -14 -12 -19 -25 -15 -11 3 -20 0 -24 -10 -3 -8 -12
-15 -20 -15 -8 0 -16 -12 -18 -27 l-4 -28 -12 25 c-11 23 -12 21 -6 -16 6 -46
-7 -64 -31 -44 -12 10 -15 9 -15 -4 0 -9 -4 -16 -10 -16 -5 0 -10 9 -10 20 0
11 -4 20 -10 20 -13 0 -13 0 7 -70 16 -58 32 -65 33 -15 0 11 10 25 22 30 12
6 26 24 31 40 5 17 14 36 20 43 15 19 64 8 86 -19 12 -15 43 -26 111 -40 52
-10 102 -19 110 -19 26 0 -11 19 -40 21 -23 1 -23 2 5 9 21 5 24 8 10 9 -11 0
-28 9 -37 19 -9 9 -23 23 -30 29 -7 7 -22 22 -32 33 -11 11 -25 20 -33 20 -7
0 -22 9 -33 20 -25 25 -37 25 -45 0z"/>
<path d="M5066 864 c-8 -21 -8 -24 3 -24 5 0 11 9 14 20 6 24 -8 27 -17 4z"/>
<path d="M2001 808 c-6 -17 -9 -34 -6 -36 3 -3 5 -2 5 3 0 4 9 0 20 -10 12
-11 20 -13 20 -6 0 6 -7 14 -16 18 -11 4 -13 13 -9 34 9 39 0 37 -14 -3z"/>
<path d="M4678 823 c7 -3 16 -2 19 1 4 3 -2 6 -13 5 -11 0 -14 -3 -6 -6z"/>
<path d="M5058 823 c7 -3 16 -2 19 1 4 3 -2 6 -13 5 -11 0 -14 -3 -6 -6z"/>
<path d="M6670 816 c0 -21 44 -66 64 -66 15 0 15 3 -4 30 -27 38 -60 57 -60
36z"/>
<path d="M4861 808 c-1 -9 -6 -18 -13 -20 -7 -3 -8 -7 -2 -11 17 -10 32 7 23
28 -6 16 -8 16 -8 3z"/>
<path d="M5755 810 c-12 -5 -14 -9 -6 -9 8 -1 23 -9 34 -18 20 -17 20 -17 14
0 -4 10 -7 23 -7 28 0 11 -8 11 -35 -1z"/>
<path d="M4660 800 c0 -5 5 -10 10 -10 6 0 10 5 10 10 0 6 -4 10 -10 10 -5 0
-10 -4 -10 -10z"/>
<path d="M5057 803 c-12 -12 -7 -22 8 -17 8 4 15 10 15 15 0 11 -14 12 -23 2z"/>
<path d="M4640 770 c0 -5 4 -10 9 -10 6 0 13 5 16 10 3 6 -1 10 -9 10 -9 0
-16 -4 -16 -10z"/>
<path d="M3830 740 c0 -25 4 -30 23 -30 23 0 47 -17 47 -32 0 -5 -17 -6 -37
-2 -27 4 -35 3 -28 -4 6 -6 34 -13 63 -17 l53 -6 -25 28 c-14 15 -26 33 -26
39 0 14 -43 54 -58 54 -7 0 -12 -13 -12 -30z"/>
<path d="M5042 763 c0 -5 -1 -15 -5 -23 -18 -46 -31 -176 -18 -184 17 -11 82
4 74 18 -4 6 -6 20 -5 31 2 17 1 17 -7 5 -9 -13 -11 -12 -11 3 0 11 -9 21 -21
24 -21 6 -21 7 -4 20 11 7 13 13 7 13 -21 0 -13 18 10 26 l23 7 -25 10 c-25
10 -25 11 -3 14 19 4 21 7 10 24 -12 19 -29 26 -25 12z"/>
<path d="M4827 740 c-4 -16 0 -20 19 -20 28 0 30 6 10 26 -19 19 -23 18 -29
-6z"/>
<path d="M4622 730 c-11 -18 -10 -20 9 -20 12 0 18 4 13 11 -3 6 0 15 7 20 12
7 11 9 -1 9 -8 0 -21 -9 -28 -20z"/>
<path d="M4190 725 c0 -16 27 -32 37 -21 7 7 -16 36 -28 36 -5 0 -9 -7 -9 -15z"/>
<path d="M5925 720 c-9 -14 17 -116 35 -140 17 -22 21 -23 76 -14 58 9 59 9
62 44 3 51 -7 62 -45 48 -23 -9 -37 -9 -55 -1 -21 10 -18 12 24 12 47 1 72 16
44 27 -8 3 -13 11 -10 18 3 9 -13 12 -61 13 -36 0 -67 -3 -70 -7z m115 -19 c0
-16 -19 -23 -43 -15 -21 7 -21 7 -2 15 28 11 45 11 45 0z"/>
<path d="M4090 704 c0 -19 90 -191 132 -251 16 -24 34 -43 40 -43 32 0 -51
167 -111 224 -22 21 -29 36 -25 49 4 11 1 23 -7 28 -21 13 -29 11 -29 -7z"/>
<path d="M4600 679 c0 -21 1 -22 24 -13 22 8 20 21 -4 27 -15 4 -20 0 -20 -14z"/>
<path d="M4806 678 c-9 -35 -8 -38 14 -38 11 0 20 5 20 10 0 6 -4 10 -10 10
-5 0 -10 5 -10 10 0 6 9 10 20 10 11 0 20 5 20 10 0 6 -11 10 -24 10 -16 0
-26 -7 -30 -22z"/>
<path d="M5249 688 c-8 -31 -5 -58 6 -58 19 0 28 17 13 24 -10 5 -10 7 0 12
17 8 15 24 -3 24 -8 0 -15 -1 -16 -2z"/>
<path d="M4190 645 c7 -8 16 -15 21 -15 5 0 9 7 9 15 0 9 -9 15 -21 15 -18 0
-19 -2 -9 -15z"/>
<path d="M4380 656 c0 -9 29 -66 34 -66 9 0 -8 51 -20 61 -8 6 -14 8 -14 5z"/>
<path d="M4574 649 c-8 -13 25 -24 37 -12 7 7 3 12 -10 16 -12 3 -24 1 -27 -4z"/>
<path d="M3960 635 c0 -4 12 -24 28 -44 28 -37 62 -95 62 -105 0 -3 -17 -6
-38 -6 -33 0 -96 -29 -65 -30 6 0 15 5 18 10 3 6 26 10 50 10 24 0 47 -4 50
-10 3 -5 13 -10 22 -10 12 0 10 7 -9 33 -13 17 -36 52 -50 77 -25 43 -68 91
-68 75z"/>
<path d="M4787 624 c-4 -4 -4 -10 -1 -15 6 -10 34 0 34 12 0 10 -24 12 -33 3z"/>
<path d="M4560 575 c0 -36 3 -45 18 -45 26 0 38 12 44 41 3 18 -1 30 -14 38
-36 22 -48 14 -48 -34z"/>
<path d="M6155 560 c3 -5 13 -10 21 -10 8 0 14 5 14 10 0 6 -9 10 -21 10 -11
0 -17 -4 -14 -10z"/>
<path d="M4430 558 c0 -2 9 -25 20 -53 13 -34 19 -42 20 -27 0 22 -25 82 -35
82 -3 0 -5 -1 -5 -2z"/>
<path d="M5518 543 c7 -3 16 -2 19 1 4 3 -2 6 -13 5 -11 0 -14 -3 -6 -6z"/>
<path d="M2031 527 c15 -13 69 -34 69 -27 0 4 -14 13 -31 19 -32 11 -46 14
-38 8z"/>
<path d="M6637 512 c1 -8 3 -16 3 -18 0 -3 5 -2 10 1 6 3 10 11 10 16 0 6 -4
8 -9 5 -5 -4 -11 -3 -14 1 -2 5 -2 2 0 -5z"/>
<path d="M2127 501 c-18 -7 -18 -8 -1 -21 13 -12 18 -12 21 -2 3 6 9 9 15 6 6
-4 9 -1 6 6 -5 17 -18 20 -41 11z"/>
<path d="M5025 500 c4 -6 11 -8 16 -5 14 9 11 15 -7 15 -8 0 -12 -5 -9 -10z"/>
<path d="M6323 495 c-24 -11 -39 -12 -63 -4 -23 8 -38 8 -60 -1 -17 -7 -48
-10 -71 -7 -23 3 -48 3 -55 0 -17 -6 -18 -50 -2 -55 10 -4 10 -19 1 -73 -7
-41 -8 -74 -3 -80 5 -6 10 -22 12 -35 2 -14 7 -31 12 -38 16 -27 -15 -42 -66
-33 -5 0 -8 9 -8 20 0 10 -7 24 -15 31 -8 7 -15 21 -15 32 0 21 -48 118 -64
130 -5 3 -21 2 -34 -3 -19 -7 -34 -5 -59 6 -19 9 -36 15 -38 13 -7 -7 -8 -134
-1 -188 4 -30 9 -70 10 -89 2 -18 9 -36 15 -40 6 -4 10 -23 9 -42 l-3 -34 529
-3 528 -2 -33 38 c-19 21 -43 50 -54 66 -11 16 -38 52 -60 80 -23 28 -58 75
-79 104 -27 37 -44 52 -61 52 -12 0 -28 7 -35 15 -7 8 -19 15 -26 15 -8 0 -14
10 -14 25 0 14 5 25 10 25 18 0 11 25 -17 59 -25 29 -31 31 -55 22 -15 -5 -35
-8 -45 -6 -10 2 -27 6 -38 9 -11 3 -34 -2 -52 -9z m135 -86 c-2 -6 -8 -10 -13
-10 -5 0 -11 4 -13 10 -2 6 4 11 13 11 9 0 15 -5 13 -11z m-288 -14 c0 -8 -6
-15 -14 -15 -17 0 -28 14 -19 24 12 12 33 6 33 -9z m105 -5 c10 -11 21 -20 25
-20 4 0 10 9 13 20 3 12 14 20 26 20 18 0 21 -6 21 -37 -1 -49 -20 -73 -56
-73 -28 1 -28 1 -9 17 18 14 18 15 1 9 -31 -11 -82 55 -59 77 10 11 19 8 38
-13z m215 -30 c0 -5 -7 -10 -16 -10 -8 0 -12 5 -9 10 3 6 10 10 16 10 5 0 9
-4 9 -10z m-303 -27 c-3 -3 -11 -2 -17 2 -9 6 -9 10 1 16 14 8 27 -7 16 -18z
m-277 -2 c0 -12 -21 -19 -37 -13 -22 8 -14 22 12 22 14 0 25 -4 25 -9z m310
-41 c0 -5 -7 -10 -15 -10 -8 0 -15 5 -15 10 0 6 7 10 15 10 8 0 15 -4 15 -10z
m-305 -10 c3 -6 -1 -13 -10 -16 -19 -8 -30 0 -20 15 8 14 22 14 30 1z m445
-20 c11 -7 6 -10 -20 -10 -26 0 -31 3 -20 10 8 5 17 10 20 10 3 0 12 -5 20
-10z m-420 -39 c0 -11 -26 -22 -34 -14 -12 12 -5 23 14 23 11 0 20 -4 20 -9z
m10 -61 c0 -5 -7 -10 -15 -10 -8 0 -15 5 -15 10 0 6 7 10 15 10 8 0 15 -4 15
-10z m110 -19 c0 -5 7 -8 16 -7 9 0 19 -5 21 -11 6 -17 -29 -17 -45 -1 -15 15
-16 28 -2 28 6 0 10 -4 10 -9z m55 -76 c0 -14 -7 -20 -22 -21 -23 -1 -32 24
-16 40 13 13 38 1 38 -19z"/>
<path d="M6674 489 c-8 -13 22 -46 33 -35 4 4 1 11 -6 15 -7 5 -10 14 -7 20 4
6 3 11 -3 11 -5 0 -13 -5 -17 -11z"/>
<path d="M5665 460 c-3 -5 -17 -10 -29 -10 -13 0 -29 -7 -36 -15 -9 -11 -17
-12 -32 -4 -11 6 -51 12 -89 14 -61 3 -72 1 -95 -20 -26 -25 -55 -24 -86 2
-14 13 -19 13 -41 -1 -22 -15 -27 -15 -62 0 -36 15 -40 15 -52 -2 -27 -37 -3
-64 57 -64 32 0 32 -1 25 -37 -4 -21 -10 -42 -13 -48 -4 -5 -7 -30 -8 -55 -1
-25 -5 -84 -9 -132 l-7 -88 107 0 108 0 -7 130 c-3 72 -11 152 -16 177 -12 52
-2 75 25 53 12 -10 21 -9 50 4 19 10 39 14 44 11 12 -7 2 -226 -12 -242 -6 -9
-5 -18 3 -28 7 -8 10 -22 6 -30 -3 -8 -1 -15 5 -15 7 0 9 -12 7 -30 l-4 -29
125 0 c69 0 133 4 141 9 12 8 11 10 -7 10 -16 0 -24 7 -28 25 -3 14 -7 36 -10
49 -3 15 0 26 10 30 20 7 19 28 -1 24 -12 -2 -21 13 -35 62 -11 36 -26 85 -34
110 -16 52 -8 69 27 53 19 -8 29 -6 55 14 28 21 30 27 20 44 -7 11 -23 19 -39
19 -15 0 -30 5 -33 10 -3 6 -10 10 -15 10 -5 0 -12 -4 -15 -10z m-65 -80 c12
-7 12 -12 3 -21 -10 -10 -18 -10 -40 0 -26 13 -27 14 -8 22 26 10 28 10 45 -1z
m-269 -31 c-21 -23 -51 -20 -51 6 0 11 10 15 35 15 l36 0 -20 -21z m284 -28
c3 -5 1 -13 -5 -16 -15 -9 -43 3 -35 15 8 13 32 13 40 1z m-287 -23 c-3 -7
-13 -13 -23 -13 -10 0 -20 6 -22 13 -3 7 5 12 22 12 17 0 25 -5 23 -12z m292
-38 c0 -5 -5 -12 -11 -16 -14 -8 -33 11 -25 25 7 11 36 4 36 -9z m-296 -9 c3
-5 -1 -15 -10 -22 -13 -10 -17 -10 -25 2 -5 8 -9 17 -9 22 0 10 38 9 44 -2z
m306 -52 c0 -5 -9 -9 -20 -9 -22 0 -27 16 -7 23 15 5 27 -1 27 -14z m-310 -14
c0 -8 -7 -15 -15 -15 -8 0 -15 7 -15 15 0 8 7 15 15 15 8 0 15 -7 15 -15z
m315 -45 c-3 -5 -13 -10 -21 -10 -8 0 -14 5 -14 10 0 6 9 10 21 10 11 0 17 -4
14 -10z m-320 -11 c10 -15 -1 -23 -20 -15 -9 3 -13 10 -10 16 8 13 22 13 30
-1z m320 -49 c3 -5 1 -10 -4 -10 -6 0 -11 5 -11 10 0 6 2 10 4 10 3 0 8 -4 11
-10z m-323 -22 c-6 -6 -19 -7 -29 -3 -17 7 -17 8 2 15 24 9 41 2 27 -12z"/>
<path d="M5019 424 c-9 -11 -27 -15 -63 -13 -36 2 -51 -1 -54 -11 -7 -23 -22
-28 -61 -25 -47 4 -56 -3 -35 -26 18 -20 53 -25 70 -10 5 5 33 12 62 15 29 3
56 7 60 7 4 1 25 1 46 0 38 -1 39 -1 21 -21 -21 -23 -40 -25 -76 -6 l-26 13
-32 -106 c-17 -58 -36 -113 -40 -121 -5 -9 -12 -39 -16 -68 l-7 -52 105 0 104
0 14 98 c14 110 16 170 4 225 -7 33 -6 37 13 37 15 0 20 5 16 15 -4 8 -14 15
-24 15 -10 0 -20 6 -23 14 -10 26 -43 38 -58 20z m24 -146 c-18 -18 -24 -19
-37 -8 -25 20 -19 30 21 30 l37 0 -21 -22z m-9 -37 c9 -13 -19 -32 -38 -25
-17 6 -20 16 -9 27 9 10 41 9 47 -2z m-9 -61 c8 -13 -20 -24 -41 -16 -20 8 -9
26 16 26 10 0 22 -5 25 -10z m-24 -73 c-5 -5 -18 -7 -28 -3 -14 6 -15 9 -4 16
19 11 46 1 32 -13z m-6 -56 c3 -5 1 -12 -4 -15 -12 -8 -41 3 -41 15 0 12 37
12 45 0z"/>
<path d="M6710 429 c0 -5 5 -7 10 -4 6 3 10 8 10 11 0 2 -4 4 -10 4 -5 0 -10
-5 -10 -11z"/>
<path d="M2076 414 c-9 -22 -7 -44 2 -44 5 0 9 14 9 30 0 34 -2 37 -11 14z"/>
<path d="M4371 414 c-1 -27 -26 -38 -53 -23 -34 18 -47 6 -34 -35 10 -34 13
-36 56 -36 64 0 68 7 49 65 -10 28 -18 41 -18 29z"/>
<path d="M4615 393 c-6 -16 -9 -41 -7 -56 3 -23 6 -26 18 -16 8 6 14 19 14 28
0 9 7 27 16 39 8 12 11 22 5 22 -5 0 -15 2 -23 5 -8 3 -17 -5 -23 -22z"/>
<path d="M3894 375 c-23 -18 -76 -19 -92 -3 -9 9 -23 8 -59 -5 -27 -9 -61 -16
-78 -15 -16 1 -55 1 -86 0 -54 -2 -56 -3 -52 -27 5 -21 9 -23 34 -18 24 5 28
3 23 -11 -5 -12 0 -16 23 -16 16 0 35 6 41 12 10 10 14 10 21 0 6 -9 15 -10
34 -3 17 7 37 7 59 0 23 -6 48 -6 80 3 34 8 54 9 71 1 14 -7 29 -7 39 -2 9 5
34 9 55 9 21 0 49 0 63 1 14 0 51 1 83 2 31 1 57 5 57 8 0 3 -15 23 -32 43
-30 34 -35 37 -61 27 -19 -8 -34 -7 -53 1 -20 9 -30 9 -45 0 -23 -15 -75 -16
-84 -2 -8 14 -18 13 -41 -5z"/>
<path d="M1980 320 c0 -5 5 -10 11 -10 5 0 7 5 4 10 -3 6 -8 10 -11 10 -2 0
-4 -4 -4 -10z"/>
<path d="M4675 310 c-12 -19 5 -30 30 -18 13 6 22 15 19 19 -7 12 -41 11 -49
-1z"/>
<path d="M4400 295 c0 -9 9 -15 24 -15 30 0 42 15 20 24 -27 10 -44 7 -44 -9z"/>
<path d="M3401 286 c-54 -10 -61 -13 -48 -24 12 -10 21 -11 36 -3 11 6 41 11
66 11 33 0 45 4 43 13 -6 16 -21 17 -97 3z"/>
<path d="M3210 256 c0 -23 20 -29 38 -13 9 8 26 17 37 20 11 2 -1 5 -27 6 -36
1 -48 -3 -48 -13z"/>
<path d="M4657 263 c-15 -14 -6 -23 23 -23 32 0 40 14 14 24 -20 8 -29 8 -37
-1z"/>
<path d="M4770 233 c-29 -29 -40 -34 -65 -29 -67 13 -70 12 -73 -14 -2 -14 -8
-29 -13 -34 -5 -6 -9 -18 -9 -27 0 -9 -7 -22 -15 -29 -8 -7 -15 -23 -15 -36 0
-12 -4 -26 -10 -29 -5 -3 -10 -13 -10 -21 0 -11 20 -14 104 -14 99 0 104 1
109 23 31 122 38 158 42 194 2 24 1 44 -3 47 -4 2 -23 -12 -42 -31z m-51 -62
c15 -10 7 -31 -13 -31 -21 0 -40 27 -24 33 19 8 22 8 37 -2z m-20 -60 c17 -11
5 -31 -19 -31 -21 0 -34 15 -25 30 8 12 25 13 44 1z m-21 -78 c2 -8 -5 -13
-17 -13 -21 0 -35 13 -24 24 10 10 36 3 41 -11z"/>
<path d="M4382 239 c2 -6 7 -10 11 -10 4 1 14 1 23 1 8 0 12 5 9 10 -8 13 -48
13 -43 -1z"/>
<path d="M4355 191 c-8 -14 10 -22 30 -15 13 5 14 8 3 15 -17 11 -26 11 -33 0z"/>
<path d="M4465 138 c-13 -30 -38 -34 -81 -13 -39 18 -64 14 -64 -10 0 -13 8
-16 37 -13 29 2 38 -1 41 -15 5 -24 -25 -33 -48 -12 -14 13 -23 14 -39 5 -12
-6 -21 -20 -21 -31 0 -11 -7 -22 -15 -25 -26 -10 -17 -24 16 -24 16 0 28 4 24
9 -7 13 32 34 46 25 6 -3 8 -12 5 -20 -4 -11 6 -14 44 -14 36 0 50 4 50 14 0
7 7 19 15 26 9 7 13 20 10 27 -2 8 -1 22 5 32 9 18 3 61 -9 61 -3 0 -11 -10
-16 -22z"/>
<path d="M5450 70 c-13 -8 -12 -10 3 -10 9 0 17 5 17 10 0 12 -1 12 -20 0z"/>
</g>
</svg>
